<?xml version="1.0" encoding="UTF-8"?>
<svg width="101px" height="101px" viewBox="0 0 101 101" version="1.1" xmlns="http://www.w3.org/2000/svg" xmlns:xlink="http://www.w3.org/1999/xlink">
    <!-- Generator: Sketch 56.3 (81716) - https://sketch.com -->
    <title>001-get-money</title>
    <desc>Created with Sketch.</desc>
    <g id="Page-1" stroke="none" stroke-width="1" fill="none" fill-rule="evenodd">
        <g id="001-get-money">
            <g transform="translate(22.000000, 23.000000)">
                <path d="M57.645,34.568 C56.393,32.823 55.353,32.409 51,34.698 L42.326,39.999 C41.336,40.526 39.747,40.798 37.986,40.933 C37.988,40.956 38,40.977 38,40.999 C38,41.552 37.553,41.999 37,41.999 L20,41.999 C17,41.999 17,43.505 17,43.999 C17,44.552 16.553,44.999 16,44.999 C15.446,44.999 15,44.552 15,43.999 C15,41.495 16.869,39.999 20,39.999 L34.236,39.999 C34.771,39.441 34.858,38.581 33.973,37.261 C32.568,35.162 30.144,33.971 27.619,33.971 L23.718,33.971 C21.444,33.971 19.201,33.295 17.386,31.927 C13.149,28.733 5,28.999 5,28.999 L5,52.999 L19,52.999 C20.997,52.999 22.992,52.849 24.966,52.548 L38,50.567 C38.444,50.567 38.877,50.514 39.295,50.421 C39.302,50.42 39.309,50.419 39.315,50.418 C40.371,50.27 41.335,49.736 42.104,48.999 L57.3,37.165 C58.074,36.524 58.231,35.386 57.645,34.568" id="XMLID_112_" fill="#FAC176" fill-rule="nonzero"></path>
                <path d="M30.725,41.011 C30.359,41.004 30.014,41 29.718,41 C29.718,41 30.135,41.027 30.725,41.011" id="XMLID_111_" fill="#2C91D0" fill-rule="nonzero"></path>
                <path d="M15,44 C15,44.552 15.447,45 16,45 C16.553,45 17,44.552 17,44 C17,43.505 17,42 20,42 L37,42 C37.553,42 38,41.552 38,41 C38,40.976 37.988,40.957 37.987,40.934 C35.499,41.125 32.678,41.042 30.724,41.01 C30.134,41.029 29.717,41 29.717,41 C30.013,41 30.359,41.005 30.724,41.01 C31.807,40.979 33.474,40.794 34.236,40 L20,40 C16.869,40 15,41.495 15,44" id="XMLID_110_" fill="#E2AC69" fill-rule="nonzero"></path>
                <path d="M49,8 C49,12.418 45.418,16 41,16 C36.582,16 33,12.418 33,8 C33,3.582 36.582,0 41,0 C45.418,0 49,3.582 49,8" id="XMLID_109_" fill="#E4AF18" fill-rule="nonzero"></path>
                <path d="M21.806,33.803 C22.435,33.912 23.074,33.973 23.718,33.973 L27.618,33.973 C28.252,33.973 28.879,34.048 29.485,34.193 C32.154,32.896 34,30.167 34,27 C34,22.582 30.418,19 26,19 C21.581,19 18,22.582 18,27 C18,29.878 19.524,32.394 21.806,33.803" id="XMLID_74_" fill="#E4AF18" fill-rule="nonzero"></path>
                <path d="M30,27 C30,29.209 28.209,31 26,31 C23.791,31 22,29.209 22,27 C22,24.791 23.791,23 26,23 C28.209,23 30,24.791 30,27" id="XMLID_73_" fill="#FCC62D" fill-rule="nonzero"></path>
                <path d="M45,8 C45,10.209 43.209,12 41,12 C38.791,12 37,10.209 37,8 C37,5.791 38.791,4 41,4 C43.209,4 45,5.791 45,8" id="XMLID_72_" fill="#FCC62D" fill-rule="nonzero"></path>
                <rect id="XMLID_75_" fill="#556180" fill-rule="nonzero" x="0" y="25.972" width="5" height="30.028"></rect>
            </g>
            <g id="002-time-passing" fill="#C0FFB3">
                <path d="M1.66666133,53 C0.746664278,53 0,52.2357742 0,51.2903226 C0,23.0088387 22.4299282,0 49.99984,0 C62.8881321,0 75.1347596,5.03670968 84.483063,14.1817742 C85.1497276,14.8331613 85.1747275,15.9153871 84.5397295,16.5992581 C83.9047316,17.283129 82.8480683,17.3070645 82.1830704,16.6556774 C73.4580983,8.12096774 62.0281349,3.41935484 49.99984,3.41935484 C24.2682557,3.41935484 3.33332267,24.8946129 3.33332267,51.2903226 C3.33332267,52.2357742 2.58665839,53 1.66666133,53" id="XMLID_138_" fill-rule="nonzero"></path>
                <path d="M86,18 L69.8,18 C68.8064,18 68,17.2401 68,16.3 C68,15.3599 68.8064,14.6 69.8,14.6 L82.4,14.6 L82.4,2.7 C82.4,1.7599 83.2064,1 84.2,1 C85.1936,1 86,1.7599 86,2.7 L86,18 Z" id="XMLID_137_" fill-rule="nonzero"></path>
                <path d="M49.5396264,101 C48.6134947,100.981187 47.8725894,100.213295 47.8894281,99.2555663 C47.9062669,98.3149403 48.6808497,97.5607293 49.6069814,97.5795418 C50.5331131,97.5966441 51.2740185,98.3833495 51.2571797,99.3239755 C51.240341,100.264601 50.4994356,101 49.5733039,101 L49.5396264,101 Z M52.9410555,99.2709584 C52.8568618,98.3320426 53.5472508,97.5111326 54.4733825,97.4239109 C55.3995142,97.3555018 56.2246134,98.0584059 56.2919684,98.9973217 C56.3761622,99.939658 55.6857731,100.760568 54.7596414,100.828977 L54.7596414,100.844369 L54.6249314,100.844369 C53.7493159,100.844369 53.0084106,100.161988 52.9410555,99.2709584 L52.9410555,99.2709584 Z M44.3364501,100.640852 L44.3364501,100.62375 C43.4103184,100.521136 42.7536069,99.6660213 42.8714782,98.7253953 C42.9893495,97.7830591 43.8144486,97.1177799 44.7405803,97.237496 C45.666712,97.3555018 46.3234236,98.1952243 46.2055523,99.13414 C46.1045198,100.008067 45.3804532,100.640852 44.5385152,100.640852 L44.3364501,100.640852 L44.3364501,100.640852 Z M57.9590055,98.7595999 C57.7906179,97.8360762 58.3968132,96.9279445 59.3061061,96.7586318 C60.2153991,96.5876089 61.1078532,97.1861891 61.2762408,98.1268151 C61.4446284,99.0503388 60.8384331,99.939658 59.9291402,100.126073 C59.8281076,100.144885 59.7270751,100.144885 59.6260425,100.144885 C58.8346209,100.144885 58.1105543,99.5805098 57.9590055,98.7595999 L57.9590055,98.7595999 Z M39.1837902,99.7173282 C38.291336,99.5121007 37.7188182,98.588577 37.9208833,97.6650532 C38.1397872,96.7415295 39.0322413,96.1771539 39.9415343,96.3823814 C40.8508272,96.5876089 41.423345,97.5111326 41.2044411,98.4346563 C41.0360536,99.2213617 40.3288257,99.7515328 39.5710816,99.7515328 C39.4363715,99.7515328 39.3185002,99.7515328 39.1837902,99.7173282 L39.1837902,99.7173282 Z M62.9096004,97.7146499 C62.6401802,96.8099387 63.145343,95.8505002 64.0377972,95.595676 C64.9302513,95.3220394 65.8732218,95.8351081 66.1426419,96.7244272 C66.4120621,97.6308487 65.9068993,98.588577 65.0144451,98.8622136 C64.8460575,98.9135205 64.67767,98.9306228 64.5261211,98.9306228 C63.8020545,98.9306228 63.1285042,98.4517586 62.9096004,97.7146499 L62.9096004,97.7146499 Z M34.1658402,98.2636334 C33.2902248,97.9557922 32.8187396,96.9809616 33.1218372,96.0916425 C33.4249349,95.185221 34.3847441,94.721749 35.2603595,95.0313004 C36.1359749,95.3220394 36.6074602,96.29687 36.3043625,97.2032914 C36.0686199,97.9044853 35.4119083,98.3474347 34.7215193,98.3474347 C34.5362929,98.3474347 34.3510666,98.3149403 34.1658402,98.2636334 L34.1658402,98.2636334 Z M67.7254852,96.1600516 C67.3718713,95.2861246 67.7760015,94.2787996 68.6347781,93.9196515 C69.4935548,93.5605034 70.4702028,93.9709584 70.8406554,94.8431752 C71.1942694,95.7136818 70.7901392,96.7056147 69.9313625,97.0835753 C69.7124586,97.1690868 69.4935548,97.2032914 69.2746509,97.2032914 C68.6179394,97.2032914 67.9949053,96.8099387 67.7254852,96.1600516 L67.7254852,96.1600516 Z M29.3162779,96.2780574 C28.47434,95.886415 28.1207261,94.8585673 28.5080175,94.0034527 C28.8953089,93.1483382 29.8887957,92.773798 30.7475723,93.184253 C31.5895102,93.5758955 31.9431242,94.5866409 31.5558327,95.4417554 C31.2695738,96.0728299 30.6633785,96.4319781 30.0235057,96.4319781 C29.7877631,96.4319781 29.5520205,96.3823814 29.3162779,96.2780574 L29.3162779,96.2780574 Z M72.3561437,94.0906744 C71.9014972,93.2697644 72.2045948,92.2248145 73.029694,91.7818651 C73.8379544,91.3201033 74.8651186,91.6279445 75.3029263,92.4659568 C75.7575728,93.2851565 75.4544752,94.3301065 74.629376,94.7747661 C74.3767946,94.9269764 74.1073745,94.9953856 73.8379544,94.9953856 C73.2317591,94.9953856 72.6592413,94.6721523 72.3561437,94.0906744 L72.3561437,94.0906744 Z M24.7024582,93.7999355 C23.9110365,93.3210713 23.6416164,92.2607293 24.1299404,91.4569216 C24.6014256,90.6360116 25.6285899,90.3794773 26.4368503,90.8583414 C27.2282719,91.3543078 27.497692,92.3975476 27.009368,93.2013553 C26.6894316,93.7486286 26.1337526,94.0393675 25.5612348,94.0393675 C25.2749759,94.0393675 24.9718783,93.9709584 24.7024582,93.7999355 L24.7024582,93.7999355 Z M76.7510595,91.5595353 C76.2122193,90.7899322 76.4142844,89.7124879 77.1720285,89.1823169 C77.9466114,88.6521459 78.9906144,88.8402711 79.5126159,89.6269764 C80.0514561,90.3965795 79.849391,91.4740239 79.0916469,92.0024847 C78.7885493,92.2094224 78.4686129,92.2932236 78.1318377,92.2932236 C77.5929974,92.2932236 77.0709959,92.0383995 76.7510595,91.5595353 L76.7510595,91.5595353 Z M20.3748973,90.8583414 L20.3748973,90.8583414 C19.6171532,90.2922556 19.4656044,89.2165215 20.0212834,88.4640207 C20.5769624,87.6944176 21.6378042,87.5404969 22.3787096,88.1048725 C23.1196149,88.6692481 23.2711637,89.7466925 22.7323235,90.4991933 C22.3955483,90.9609551 21.8903856,91.1832849 21.3683841,91.1832849 C21.0147701,91.1832849 20.6611562,91.078961 20.3748973,90.8583414 L20.3748973,90.8583414 Z M80.8597165,88.5820265 C80.2535212,87.8654405 80.337715,86.7879961 81.0449429,86.1706034 C81.7521707,85.5566312 82.8130125,85.6404324 83.4192078,86.3604389 C84.0254031,87.0787351 83.9412093,88.1544692 83.2339814,88.7718619 C82.914045,89.0454985 82.5267536,89.1823169 82.1394621,89.1823169 C81.6679769,89.1823169 81.1964917,88.9770894 80.8597165,88.5820265 L80.8597165,88.5820265 Z M16.3504341,87.4720878 L16.3504341,87.4720878 C15.6600451,86.8222007 15.6095288,85.7430461 16.2494016,85.0435624 C16.8724356,84.3594708 17.9501162,84.3064537 18.6236665,84.9409487 L18.6236665,84.9563408 C19.3140556,85.5891255 19.3477331,86.6665699 18.724699,87.369474 C18.3879239,87.7269119 17.9332774,87.9167473 17.4786309,87.9167473 C17.0745007,87.9167473 16.6703705,87.7628267 16.3504341,87.4720878 L16.3504341,87.4720878 Z M84.6484371,85.1803808 C83.9748868,84.5287835 83.9412093,83.4513391 84.5979208,82.7689577 C85.2377936,82.0848661 86.2986354,82.0677638 86.9721857,82.7176509 C87.645736,83.3675379 87.6625748,84.4449823 87.022702,85.1290739 C86.7027656,85.488222 86.2481191,85.6592449 85.8103114,85.6592449 C85.3893425,85.6592449 84.9683735,85.5053243 84.6484371,85.1803808 L84.6484371,85.1803808 Z M12.6964236,83.6736689 C12.0733896,82.9741852 12.1407446,81.8950307 12.8311337,81.2639561 C13.5383615,80.6482736 14.5992033,80.6995805 15.2053986,81.4178767 C15.8284326,82.1190707 15.7610776,83.196515 15.0706885,83.8292998 C14.7507521,84.1200387 14.3466219,84.2568571 13.9593305,84.2568571 C13.4878453,84.2568571 13.01636,84.0687318 12.6964236,83.6736689 L12.6964236,83.6736689 Z M88.066705,81.4178767 C87.3426384,80.8363988 87.2079283,79.7572443 87.7804461,79.023556 C88.3529639,78.2710552 89.3969669,78.1342369 90.1378723,78.7157147 C90.8787776,79.2971926 91.0134877,80.374637 90.4409699,81.1083253 C90.1041947,81.5546951 89.599032,81.7770248 89.110708,81.7770248 C88.7402553,81.7770248 88.3866414,81.6573088 88.066705,81.4178767 L88.066705,81.4178767 Z M9.42970455,79.5349145 C8.89086429,78.7670216 9.05925187,77.7066796 9.81699599,77.142304 C10.5747401,76.5950307 11.6355819,76.7831559 12.1744221,77.5356567 C12.7132624,78.3052598 12.5448748,79.3827041 11.7871307,79.9299774 C11.484033,80.1523072 11.1472579,80.2532107 10.8104827,80.2532107 C10.2716425,80.2532107 9.76647971,79.9983866 9.42970455,79.5349145 L9.42970455,79.5349145 Z M91.0976815,77.3133269 C90.3062598,76.8173604 90.0705172,75.7553082 90.5588412,74.9532107 C91.0471652,74.1665053 92.0911682,73.9082607 92.8825898,74.4042272 C93.6740115,74.9001936 93.9097541,75.9622459 93.4214301,76.7643433 C93.1014937,77.2962246 92.5458147,77.5698612 91.9901356,77.5698612 C91.687038,77.5698612 91.3839404,77.4843498 91.0976815,77.3133269 L91.0976815,77.3133269 Z M6.61763194,75.0729268 C6.14614672,74.2520168 6.4324056,73.208777 7.24066599,72.7470152 C8.04892638,72.2664408 9.07609063,72.5571797 9.5307371,73.3797999 L9.54757586,73.3797999 C10.0022223,74.1989997 9.71596344,75.2439497 8.90770305,75.7057115 C8.65512168,75.8596321 8.35202403,75.9280413 8.0826039,75.9280413 C7.49324737,75.9280413 6.92072959,75.6184898 6.61763194,75.0729268 L6.61763194,75.0729268 Z M93.6908502,72.9163278 C92.8657511,72.5075831 92.5121371,71.4797354 92.9162673,70.6246208 C93.3203975,69.7695063 94.3475618,69.4291707 95.1726609,69.8396257 C96.0145988,70.2500807 96.351374,71.2745079 95.9472438,72.1296225 C95.6609849,72.7299129 95.0547896,73.089061 94.4317556,73.089061 C94.1791742,73.089061 93.9265928,73.0377541 93.6908502,72.9163278 L93.6908502,72.9163278 Z M4.26020581,70.3355921 C3.88975313,69.4633753 4.27704456,68.4543401 5.11898247,68.0780897 C5.97775913,67.7018393 6.97124586,68.095192 7.34169854,68.9503066 C7.71215122,69.8225234 7.32485979,70.8315586 6.48292188,71.2060987 C6.26401802,71.3104227 6.02827541,71.3617296 5.80937155,71.3617296 C5.15265999,71.3617296 4.54646469,70.9683769 4.26020581,70.3355921 L4.26020581,70.3355921 Z M95.8293725,68.2662149 C94.9537571,67.9412714 94.5159494,66.9664408 94.8358858,66.0754114 C95.1389834,65.1860923 96.1156314,64.7260407 96.9912468,65.0509842 C97.8668622,65.3759277 98.3046699,66.3490481 97.9847335,67.2400774 C97.7489909,67.9412714 97.0922794,68.3688287 96.4018903,68.3688287 C96.2166639,68.3688287 96.0145988,68.3346241 95.8293725,68.2662149 L95.8293725,68.2662149 Z M2.40794241,65.3759277 C2.12168352,64.4695063 2.61000751,63.5100678 3.50246169,63.2193288 C4.37807711,62.9285899 5.33788633,63.4262665 5.60730646,64.332688 C5.89356534,65.2220071 5.40524136,66.1968377 4.52962594,66.4875766 C4.36123835,66.5388835 4.17601202,66.5559858 4.00762443,66.5559858 C3.30039659,66.5559858 2.64368503,66.0942239 2.40794241,65.3759277 L2.40794241,65.3759277 Z M97.4795708,63.4262665 C96.5871166,63.1868345 96.0314376,62.2633107 96.2503415,61.339787 C96.4860841,60.4333656 97.395377,59.8672798 98.3046699,60.0913198 C99.1971241,60.3324621 99.7528031,61.2559858 99.5170605,62.1795095 C99.3318342,62.9491126 98.6414451,63.4792836 97.883701,63.4792836 C97.7489909,63.4775734 97.6142809,63.4604711 97.4795708,63.4262665 L97.4795708,63.4262665 Z M1.07768052,60.2452404 C0.875615423,59.3217167 1.46497196,58.4152953 2.3742649,58.2254598 C3.28355783,58.0202323 4.17601202,58.6205227 4.36123835,59.5440465 C4.56330345,60.4675702 3.97394692,61.3722814 3.06465398,61.5621168 C2.94678267,61.5963214 2.82891137,61.5963214 2.71104006,61.5963214 C1.93645718,61.5963214 1.22922934,61.0490481 1.07768052,60.2452404 L1.07768052,60.2452404 Z M98.6246063,58.4152953 C97.6984746,58.2784769 97.0586018,57.4233624 97.1933119,56.4827364 C97.328022,55.5592126 98.1867986,54.8922233 99.0960916,55.0273314 C100.022223,55.1641497 100.662096,56.0380768 100.527386,56.9616005 C100.409515,57.8167151 99.6854481,58.4323975 98.860349,58.4323975 C98.7929939,58.4323975 98.7088001,58.4323975 98.6246063,58.4152953 L98.6246063,58.4152953 Z M0.26942013,54.994837 C0.168387581,54.0713133 0.841937906,53.2161988 1.7680696,53.1306873 C2.6942013,53.0263633 3.51930045,53.7121652 3.620333,54.6527912 C3.72136555,55.591707 3.04781522,56.4314295 2.12168352,56.5340432 L1.93645718,56.5340432 C1.09451928,56.5340432 0.353613921,55.882446 0.26942013,54.994837 L0.26942013,54.994837 Z M99.2476404,53.3359148 C98.3215087,53.3017102 97.5974421,52.4979025 97.6311196,51.5572765 C97.6647971,50.6166505 98.4562188,49.881252 99.3823505,49.9154566 C100.308482,49.9496612 101.032549,50.7363666 100.998871,51.6940949 C100.965194,52.5988061 100.224288,53.3359148 99.3149954,53.3359148 L99.2476404,53.3359148 Z M0,49.7102291 C0,48.7696031 0.757744116,48 1.68387581,48 C2.61000751,48 3.36775163,48.7696031 3.36775163,49.7102291 C3.36775163,50.6508551 2.61000751,51.4204582 1.68387581,51.4204582 C0.757744116,51.4204582 0,50.6508551 0,49.7102291 L0,49.7102291 Z" id="XMLID_105_" fill-rule="nonzero"></path>
            </g>
        </g>
    </g>
</svg>