<?xml version="1.0" encoding="UTF-8"?>
<svg width="769px" height="537px" viewBox="0 0 769 537" version="1.1" xmlns="http://www.w3.org/2000/svg" xmlns:xlink="http://www.w3.org/1999/xlink">
    <!-- Generator: Sketch 60 (88103) - https://sketch.com -->
    <title>logo</title>
    <desc>Created with Sketch.</desc>
    <g id="Page-1-Copy" stroke="none" stroke-width="1" fill="none" fill-rule="evenodd">
        <g id="Desktop" transform="translate(-121.000000, -244.000000)">
            <g id="logo" transform="translate(120.000000, 243.000000)">
                <g id="filtro" transform="translate(0.636364, 0.272727)" fill-rule="nonzero">
                    <path d="M374.538182,14.4581818 L222.450909,186.909091 L70.3636364,14.4581818 C78.2278086,20.8839247 88.1389463,24.27023 98.2909091,24 C129.36,24 129.36,0.727272727 160.312727,0.727272727 C191.265455,0.727272727 191.381818,24 222.450909,24 C253.52,24 253.52,0.727272727 284.589091,0.727272727 C315.658182,0.727272727 315.541818,24 346.494545,24 C356.681463,24.2671657 366.628144,20.8828179 374.538182,14.4581818 L374.538182,14.4581818 Z" id="Shape" fill="#52DE97"></path>
                    <path d="M163.943429,399.025288 L163.943429,224.24 C163.939358,221.411521 162.905205,218.681358 161.034338,216.56 L6.85251951,40.2690909 C0.925089575,34.0979568 -1.13784279,25.1718557 1.48067241,17.0256479 C4.09918749,8.87944029 10.9767629,2.82717393 19.3897829,1.26563072 C27.8028028,-0.295912378 36.3941804,2.88515689 41.7616104,9.54909091 L196.059792,185.84 C205.371987,196.463718 210.500701,210.112714 210.490255,224.24 L210.490255,399.025288 C210.490255,411.87846 200.069328,422.298015 187.216156,422.298015 C174.362984,422.298015 163.943429,411.87846 163.943429,399.025288 Z" id="Shape" fill="#FFFFFF"></path>
                    <path d="M234.908169,512.438895 L234.908169,224.24 C234.897273,210.112714 240.025987,196.463718 249.338182,185.84 L403.636364,9.54909091 C409.003793,2.88515689 417.595171,-0.295912378 426.008191,1.26563072 C434.421211,2.82717393 441.298787,8.87944029 443.917302,17.0256479 C446.535817,25.1718557 444.472884,34.0979568 438.545455,40.2690909 L284.363636,216.56 C282.492769,218.681358 281.458616,221.411521 281.454545,224.24 L281.454545,512.438895 C281.454545,525.292067 271.034991,537 258.181818,537 C245.328646,537 234.908169,525.292067 234.908169,512.438895 Z" id="Shape" fill="#FFFFFF"></path>
                </g>
                <text id="ield." font-family="Futura-Bold, Futura" font-size="200" font-weight="bold" fill="#FFFFFF">
                    <tspan x="321.2" y="383">ield.</tspan>
                </text>
            </g>
        </g>
    </g>
</svg>