<?xml version="1.0" encoding="UTF-8"?>
<svg width="691px" height="691px" viewBox="0 0 691 691" version="1.1" xmlns="http://www.w3.org/2000/svg" xmlns:xlink="http://www.w3.org/1999/xlink">
    <!-- Generator: Sketch 60.1 (88133) - https://sketch.com -->
    <title>filtro</title>
    <desc>Created with Sketch.</desc>
    <g id="Page-1" stroke="none" stroke-width="1" fill="none" fill-rule="evenodd">
        <g id="logo_dark">
            <g id="filtro" transform="translate(0.636364, 0.272727)">
                <circle id="Oval" stroke="#979797" fill="#FFFFFF" cx="344.863636" cy="345.227273" r="344.5"></circle>
                <path d="M489.538182,138.458182 L337.450909,310.909091 L185.363636,138.458182 C193.227809,144.883925 203.138946,148.27023 213.290909,148 C244.36,148 244.36,124.727273 275.312727,124.727273 C306.265455,124.727273 306.381818,148 337.450909,148 C368.52,148 368.52,124.727273 399.589091,124.727273 C430.658182,124.727273 430.541818,148 461.494545,148 C471.681463,148.267166 481.628144,144.882818 489.538182,138.458182 L489.538182,138.458182 Z" id="Shape" fill="#52DE97" fill-rule="nonzero"></path>
                <path d="M278.943429,523.025288 L278.943429,348.24 C278.939358,345.411521 277.905205,342.681358 276.034338,340.56 L121.85252,164.269091 C115.92509,158.097957 113.862157,149.171856 116.480672,141.025648 C119.099187,132.87944 125.976763,126.827174 134.389783,125.265631 C142.802803,123.704088 151.39418,126.885157 156.76161,133.549091 L311.059792,309.84 C320.371987,320.463718 325.500701,334.112714 325.490271,348.24 L325.490271,523.025288 C325.490271,535.87846 315.069328,546.298015 302.216156,546.298015 C289.362984,546.298015 278.943429,535.87846 278.943429,523.025288 Z" id="Shape" fill="#394A6D" fill-rule="nonzero"></path>
                <path d="M349.908152,636.438895 L349.908152,348.24 C349.897273,334.112714 355.025987,320.463718 364.338182,309.84 L518.636364,133.549091 C524.003793,126.885157 532.595171,123.704088 541.008191,125.265631 C549.421211,126.827174 556.298787,132.87944 558.917302,141.025648 C561.535817,149.171856 559.472884,158.097957 553.545455,164.269091 L399.363636,340.56 C397.492769,342.681358 396.458616,345.411521 396.454545,348.24 L396.454545,636.438895 C396.454545,649.292067 386.034991,661 373.181818,661 C360.328646,661 349.908152,649.292067 349.908152,636.438895 Z" id="Shape" fill="#394A6D" fill-rule="nonzero"></path>
            </g>
        </g>
    </g>
</svg>